<?xml version="1.0" standalone="no"?>
<!DOCTYPE svg PUBLIC "-//W3C//DTD SVG 20010904//EN"
 "http://www.w3.org/TR/2001/REC-SVG-20010904/DTD/svg10.dtd">
<svg version="1.0" xmlns="http://www.w3.org/2000/svg"
 width="460.000000pt" height="460.000000pt" viewBox="0 0 460.000000 460.000000"
 preserveAspectRatio="xMidYMid meet">
<metadata>
Created by potrace 1.16, written by Peter Selinger 2001-2019
</metadata>
<g transform="translate(0.000000,460.000000) scale(0.100000,-0.100000)"
fill="white " stroke="none">
<path d="M0 2300 l0 -2300 2300 0 2300 0 0 2300 0 2300 -2300 0 -2300 0 0
-2300z m1903 768 c25 -24 62 -56 82 -73 20 -16 43 -36 50 -42 8 -7 18 -13 23
-13 6 0 12 -3 14 -7 5 -12 66 -53 77 -53 5 0 16 -9 24 -20 18 -25 67 -64 67
-52 0 5 -11 15 -25 22 -14 7 -23 15 -21 17 9 9 46 -19 61 -45 16 -27 16 -27
10 -2 -5 21 -4 23 7 10 15 -17 53 -40 67 -40 5 0 11 12 13 28 l3 27 23 -22
c12 -13 27 -23 32 -23 6 0 10 -4 10 -10 0 -11 90 -54 108 -51 6 1 12 -3 12 -9
0 -5 7 -10 15 -10 8 0 15 -4 15 -8 0 -4 23 -16 50 -26 51 -18 107 -15 94 5 -4
7 0 9 12 6 36 -10 94 -18 94 -13 0 3 -11 21 -24 41 -32 46 -52 104 -63 181
-11 77 -7 91 18 63 10 -12 19 -17 19 -11 0 7 4 12 10 12 5 0 6 -7 3 -17 -4
-11 -3 -14 5 -9 7 4 12 2 12 -3 0 -6 5 -11 11 -11 6 0 29 -13 52 -29 67 -46
130 -76 162 -78 63 -4 95 -10 109 -22 8 -7 21 -9 28 -5 7 4 9 3 5 -1 -6 -7
101 -65 119 -65 9 0 3 27 -11 54 -15 27 -12 52 3 31 4 -6 14 -12 22 -14 8 -2
22 -6 32 -8 10 -3 23 5 34 24 10 15 26 38 35 51 l18 23 15 -48 c8 -26 21 -64
29 -83 11 -29 16 -90 8 -133 0 -4 -22 -7 -48 -5 -48 3 -51 6 -37 42 6 16 4 18
-10 13 -10 -4 -15 -3 -11 3 3 6 1 10 -5 10 -6 0 -8 5 -5 10 3 6 0 10 -8 10
-25 0 -96 -44 -140 -87 -34 -32 -54 -43 -87 -47 -67 -8 -112 -26 -106 -42 3
-9 -1 -14 -14 -14 -18 0 -21 -6 -34 -91 l-6 -36 -78 5 c-42 3 -80 10 -84 16
-4 6 -8 30 -8 54 0 72 -47 102 -203 129 -68 11 -109 25 -157 52 -64 36 -205
91 -232 91 -8 -1 -6 -6 7 -17 18 -14 18 -15 2 -9 -28 9 -130 -5 -118 -17 5 -5
7 -16 4 -23 -3 -9 11 -22 43 -37 l49 -22 -140 -5 c-173 -7 -216 -22 -234 -79
-6 -21 -11 -57 -11 -80 0 -41 0 -41 -37 -41 -21 0 -72 -10 -113 -21 -133 -37
-124 -36 -106 -1 9 17 25 55 36 85 12 30 27 61 35 67 18 15 20 30 3 26 -7 -1
-10 -1 -5 1 4 3 7 11 7 19 0 9 5 12 10 9 6 -4 10 5 10 19 0 14 4 26 9 26 6 0
9 8 9 18 -1 9 2 27 6 40 6 17 4 22 -10 22 -16 0 -15 2 4 20 11 11 35 40 52 66
39 56 130 233 130 252 0 14 -20 13 -65 -3 -12 -4 -1 11 24 34 24 23 47 41 51
41 4 0 28 -19 53 -42z m1569 -775 c2 -151 -1 -241 -7 -245 -17 -13 -317 -8
-355 5 -38 13 -48 39 -63 150 l-7 48 41 -33 c37 -30 47 -33 109 -33 61 0 72 3
106 30 20 17 45 46 55 65 10 19 23 41 29 48 25 28 -20 70 -93 87 -38 8 -178
-5 -171 -16 6 -10 -32 -7 -42 3 -18 19 140 59 230 58 64 -1 96 9 96 31 0 11
-7 19 -17 19 -15 0 -16 2 -3 10 8 5 32 10 52 10 l37 0 3 -237z m-1539 207
c-23 -10 -32 -30 -13 -30 6 0 23 6 38 14 35 18 127 21 312 12 96 -6 151 -13
165 -22 11 -8 15 -14 9 -14 -5 0 -16 6 -24 13 -12 10 -12 9 0 -6 7 -10 19 -16
27 -13 7 3 45 -10 85 -29 l71 -34 25 24 c14 14 29 25 35 25 5 0 4 7 -3 15 -7
8 -9 15 -4 15 5 0 -4 9 -21 20 -32 21 -27 24 23 14 39 -8 79 -43 61 -54 -15
-10 -41 -1 -33 11 3 5 -3 9 -12 9 -16 0 -16 -1 0 -19 17 -18 17 -19 -1 -24
-14 -4 -13 -5 5 -6 13 0 21 -5 18 -10 -3 -5 1 -11 8 -14 10 -4 14 0 11 13 -2
11 0 22 5 25 19 12 0 -179 -26 -277 -30 -113 -21 -106 -190 -132 -182 -28
-421 -20 -555 20 -21 6 -35 55 -53 192 -20 143 -20 196 -1 212 8 7 12 16 9 22
-8 13 15 38 35 37 11 0 9 -3 -6 -9z m1031 -252 c3 -13 7 -43 10 -68 8 -66 50
-166 82 -194 38 -32 262 -79 319 -67 l20 4 -20 8 c-12 5 2 6 34 2 39 -4 52 -3
47 6 -4 6 -20 11 -37 11 -16 0 -29 5 -29 10 0 6 10 10 23 10 12 0 33 3 46 7
l23 6 -4 -204 c-4 -188 -6 -209 -30 -271 -34 -89 -79 -158 -144 -217 -196
-180 -561 -244 -898 -160 -156 40 -405 147 -538 232 -31 21 -62 37 -68 37 -5
0 -10 4 -10 8 0 4 -18 22 -41 39 -22 17 -41 35 -42 40 -1 9 -73 63 -85 63 -13
0 -137 141 -138 158 -2 38 -5 42 -26 42 -13 0 -36 7 -52 15 -15 8 -35 15 -42
15 -8 0 -14 6 -14 14 0 7 -10 20 -23 29 -15 11 -19 18 -11 26 7 8 15 6 30 -6
10 -10 29 -17 42 -15 23 3 23 4 6 30 -10 15 -24 33 -31 40 -7 7 -13 22 -13 32
0 10 -5 22 -10 25 -10 6 -3 53 10 68 4 5 10 -6 14 -25 12 -60 59 -98 92 -73
16 11 17 16 4 54 -9 29 -10 47 -3 64 13 29 -9 69 -60 110 -60 49 -106 39 -142
-30 -14 -27 -15 -27 -15 -5 0 13 -4 21 -9 18 -4 -3 -7 -16 -6 -28 1 -13 0 -15
-2 -5 -3 10 -9 14 -16 10 -8 -5 -8 -2 0 9 7 8 9 19 5 23 -4 5 -1 4 7 0 11 -6
13 -4 8 9 -4 9 -3 14 2 11 5 -3 11 5 13 17 3 20 75 67 104 68 12 0 114 -98
114 -111 0 -11 81 -91 87 -85 7 7 7 69 -2 118 l-7 46 43 6 c24 3 73 7 108 8
l63 3 19 -73 c20 -79 67 -186 96 -217 26 -29 60 -43 133 -56 91 -15 367 5 494
37 69 18 216 84 232 105 17 22 43 98 54 159 6 30 18 61 27 68 10 7 46 12 85
12 62 0 68 -2 72 -22z m-1154 -1095 c10 -10 36 -27 57 -38 21 -11 40 -22 43
-25 25 -25 147 -92 172 -94 4 -1 13 -7 20 -13 6 -7 20 -13 30 -13 10 0 18 -5
18 -11 0 -5 4 -8 9 -5 5 4 22 1 38 -5 45 -17 128 -15 147 4 9 9 15 21 14 27
-2 6 11 18 27 28 17 9 33 21 36 25 3 5 9 -26 13 -68 5 -59 14 -90 38 -132 47
-83 46 -158 -5 -343 -27 -98 -96 -247 -128 -276 -18 -16 -21 -15 -75 27 -31
24 -72 54 -91 67 -19 13 -36 29 -40 37 -3 8 -9 12 -14 9 -5 -3 -9 2 -9 10 0 9
-4 16 -9 16 -4 0 -19 10 -32 23 -13 12 -58 51 -99 87 -158 135 -330 313 -330
341 0 5 5 9 11 9 5 0 7 -6 3 -12 -6 -10 -4 -10 8 0 10 8 18 34 21 65 6 59 15
103 27 132 5 11 16 48 26 83 19 67 37 78 74 45z"/>
<path d="M2143 2421 c-23 -11 -43 -17 -46 -15 -2 2 -4 -2 -4 -8 0 -7 -4 -22
-8 -33 -5 -11 -5 -17 0 -13 4 4 22 -20 39 -54 25 -50 39 -66 76 -85 56 -28
127 -30 178 -4 43 22 63 42 87 90 17 34 18 34 29 13 9 -17 14 -20 24 -10 9 9
8 16 -4 29 -15 16 -14 17 7 12 31 -9 17 12 -29 40 -93 58 -264 76 -349 38z"/>
</g>
</svg>
